<?xml version="1.0" encoding="utf-8"?>
<!-- Generator: Adobe Illustrator 26.5.0, SVG Export Plug-In . SVG Version: 6.00 Build 0)  -->
<svg version="1.0" id="katman_1" xmlns="http://www.w3.org/2000/svg" xmlns:xlink="http://www.w3.org/1999/xlink" x="0px" y="0px"
	 viewBox="0 0 1190.55 841.89" style="enable-background:new 0 0 1190.55 841.89;" xml:space="preserve">
<style type="text/css">
	.st0{fill:#EC6153;}
	.st1{fill-rule:evenodd;clip-rule:evenodd;fill:#EC6153;}
</style>
<path class="st0" d="M227.58,381.05l25.26-14.27c-8.61-22.18-30.12-35.3-58.94-35.3c-47.52,0-76.9,30.28-76.9,74.45
	c0,48.22,38.92,74.84,75.96,74.84c34.05,0,56.32-16.39,65.86-30.09v-51.88h-73.16v23.92h45.84l-0.19,16.39
	c0,0-13.47,13.31-37.79,13.31c-26.19,0-41.16-18.32-41.16-47.25c0-29.12,14.97-47.45,40.79-47.45
	C208.49,357.71,219.91,367.16,227.58,381.05z"/>
<path class="st0" d="M274.51,508.23v-23.38c5.54,0.92,9.18,1.1,13,1.1c11.47,0,20.07-3.87,23.9-11.6l0.76-2.76l-45.5-91.84h36.13
	l22.94,56.32c1.72,4.05,2.29,6.44,3.06,10.31h0.57c0.57-3.31,1.34-5.71,2.87-10.12l21.98-56.5h33.84l-43.2,96.26
	c-10.71,23.93-26.57,33.5-54.1,33.5C286.55,509.52,279.86,509.15,274.51,508.23z"/>
<path class="st0" d="M430.11,398.17v-18.41h-31.73v92.03h32.69v-47.67c0-14.91,7.65-23.56,20.46-23.56
	c12.23,0,18.35,7.36,18.35,22.45v48.77h32.69v-48.22c0-14.54,7.65-23.01,20.45-23.01c12.23,0,18.35,7.36,18.35,22.45v48.77h32.69
	v-54.48c0-25.95-13.38-40.31-37.28-40.31c-16.82,0-29.63,7.18-37.47,21.35C493.58,384,482.3,377,465.48,377
	C448.47,377,436.61,384,430.11,398.17z"/>
<path class="st1" d="M624.15,395.22v-15.46h-31.73v127.92h32.69v-48.77c8.03,9.76,20.65,15.64,36.7,15.64
	c29.06,0,48.94-19.51,48.94-49.14c0-29.26-18.93-48.41-47.6-48.41C646.32,377,631.98,383.26,624.15,395.22z M650.91,398.17
	c16.44,0,26,9.94,26,27.24c0,17.3-9.94,27.98-26.19,27.98c-15.87,0-26.38-10.12-26.38-25.58v-3.87
	C624.34,407.55,634.85,398.17,650.91,398.17z"/>
<path class="st1" d="M723.36,446.57c0-8.47,3.63-15.46,10.32-20.06c6.69-4.42,16.25-7.18,33.26-8.83l35.56-3.13v-2.76
	c0-10.31-7.26-15.28-20.26-15.28c-13.19,0-21.03,4.97-22.37,14.17h-33.45c2.49-20.98,23.7-33.68,56.01-33.68
	c36.32,0,52.95,12.7,52.95,39.39v28.53c0,11.78,0.77,20.43,2.29,26.87h-32.31c-0.77-4.42-1.34-10.12-1.34-15.64
	c-6.31,11.6-21.22,18.4-41.48,18.4C738.46,474.55,723.36,463.87,723.36,446.57z M803.27,435.35v-5.89l-26.38,2.58
	c-14.53,1.66-20.07,5.34-20.07,12.52c0,6.81,6.88,10.86,18.16,10.86C791.8,455.41,803.27,447.49,803.27,435.35z"/>
<path class="st0" d="M846.85,452.65l17.59-14.36c8.99,10.31,22.56,15.83,42.44,15.83c13.38,0,19.3-2.76,19.3-8.47
	c0-5.15-2.87-7.18-13.76-8.28L887,434.98c-23.32-2.76-34.41-12.15-34.41-28.34c0-18.77,17.97-29.63,50.08-29.63
	c23.13,0,41.87,6.26,52.57,17.48l-15.29,15.09c-9.75-8.47-21.79-12.52-38.99-12.52c-12.61,0-18.54,2.39-18.54,7.73
	c0,4.42,3.44,6.63,12.23,7.55l28.1,2.76c23.52,2.58,32.88,11.96,32.88,28.16c0,19.51-17.01,31.29-50.27,31.29
	C878.78,474.55,858.71,467,846.85,452.65z"/>
<path class="st0" d="M981.82,438.29l-17.59,14.36c11.85,14.36,31.92,21.9,58.5,21.9c33.26,0,50.27-11.78,50.27-31.29
	c0-16.2-9.37-25.58-32.88-28.16l-28.1-2.76c-8.8-0.92-12.24-3.13-12.24-7.55c0-5.34,5.93-7.73,18.55-7.73
	c17.21,0,29.25,4.05,38.99,12.52l15.29-15.09c-10.7-11.23-29.44-17.48-52.57-17.48c-32.11,0-50.09,10.86-50.09,29.63
	c0,16.2,11.09,25.58,34.41,28.34l25.42,2.39c10.9,1.1,13.76,3.13,13.76,8.28c0,5.71-5.93,8.47-19.3,8.47
	C1004.37,454.12,990.8,448.6,981.82,438.29z"/>
</svg>
