<?xml version="1.0" standalone="no"?>
<!DOCTYPE svg PUBLIC "-//W3C//DTD SVG 20010904//EN"
 "http://www.w3.org/TR/2001/REC-SVG-20010904/DTD/svg10.dtd">
<svg version="1.0" xmlns="http://www.w3.org/2000/svg"
 width="225.000000pt" height="225.000000pt" viewBox="0 0 225.000000 225.000000"
 preserveAspectRatio="xMidYMid meet">

<g transform="translate(0.000000,225.000000) scale(0.100000,-0.100000)"
fill="#000000" stroke="none">
<path d="M380 2240 c-165 -29 -298 -142 -352 -297 l-23 -68 0 -750 0 -750 23
-68 c45 -129 151 -234 279 -279 l68 -23 750 0 750 0 68 23 c128 45 234 150
279 279 l23 68 0 750 0 750 -23 67 c-44 127 -141 227 -270 277 l-67 26 -730 2
c-401 0 -750 -3 -775 -7z m955 -555 c79 -21 165 -68 215 -119 46 -45 94 -120
88 -136 -2 -6 -46 -35 -98 -65 l-95 -53 -20 26 c-84 113 -152 152 -260 152
-136 0 -228 -56 -281 -172 -26 -58 -29 -73 -29 -178 0 -128 11 -175 55 -242
57 -87 170 -135 289 -125 83 7 185 39 234 72 36 25 37 28 37 85 l0 60 -185 0
-186 0 3 98 3 97 293 3 292 2 0 -210 0 -211 -50 -49 c-65 -63 -161 -117 -263
-146 -118 -35 -294 -34 -404 1 -200 63 -349 213 -397 401 -20 77 -20 219 -1
300 63 267 279 422 590 423 69 1 133 -5 170 -14z"/>
</g>
</svg>
